<?xml version="1.0" standalone="no"?>
<!DOCTYPE svg PUBLIC "-//W3C//DTD SVG 20010904//EN"
 "http://www.w3.org/TR/2001/REC-SVG-20010904/DTD/svg10.dtd">
<svg version="1.0" xmlns="http://www.w3.org/2000/svg"
 width="153.000000pt" height="153.000000pt" viewBox="0 0 153.000000 153.000000"
 preserveAspectRatio="xMidYMid meet">
<metadata>
Created by potrace 1.14, written by Peter Selinger 2001-2017
</metadata>
<g transform="translate(0.000000,153.000000) scale(0.100000,-0.100000)"
fill="#000000" stroke="none">
<path d="M646 1259 c-119 -24 -263 -119 -327 -214 -21 -32 -27 -35 -54 -29
-101 23 -190 -19 -237 -110 -48 -93 -29 -221 44 -294 49 -50 80 -62 156 -57
57 3 58 2 72 -29 21 -50 140 -159 214 -195 173 -85 386 -74 542 27 73 48 116
91 162 162 19 30 36 57 38 59 2 2 12 -3 21 -11 23 -20 94 -44 156 -52 45 -6
47 -6 47 18 0 14 -10 33 -25 44 -14 11 -25 25 -25 31 0 6 -3 11 -8 11 -16 0
-36 69 -36 125 0 71 17 111 78 180 71 80 90 185 36 196 -17 4 -90 -10 -105
-19 -5 -4 -12 -7 -15 -7 -22 -4 -83 -38 -113 -64 l-36 -32 -15 29 c-45 88
-213 205 -326 229 -44 10 -202 11 -244 2z"/>
</g>
</svg>
